<svg width="116" height="56" viewBox="0 0 116 56" fill="none" xmlns="http://www.w3.org/2000/svg">
<path d="M100.561 40.7039C100.74 40.7039 100.913 40.7752 101.04 40.9023C101.167 41.0293 101.238 41.2016 101.238 41.3813V45.9742C101.238 46.3804 101.158 46.7827 101.003 47.158C100.847 47.5334 100.619 47.8744 100.332 48.1617C100.045 48.4489 99.7037 48.6768 99.3284 48.8322C98.953 48.9877 98.5508 49.0677 98.1445 49.0677H98.0158L17.8545 45.7213C17.057 45.6881 16.3031 45.3478 15.7506 44.7717C15.198 44.1956 14.8896 43.4282 14.8897 42.63V41.3835C14.8897 41.2039 14.961 41.0316 15.0881 40.9045C15.2151 40.7775 15.3874 40.7061 15.5671 40.7061H17.3058C17.4855 40.7061 17.6578 40.7775 17.7848 40.9045C17.9119 41.0316 17.9832 41.2039 17.9832 41.3835V42.63L98.1445 45.9764V41.3813C98.1445 41.2016 98.2159 41.0293 98.3429 40.9023C98.47 40.7752 98.6423 40.7039 98.8219 40.7039H100.561Z" fill="#171717"/>
<path d="M101.238 12.2071V16.8C101.238 16.9797 101.167 17.152 101.04 17.279C100.913 17.4061 100.74 17.4775 100.561 17.4775H98.8219C98.6423 17.4775 98.47 17.4061 98.3429 17.279C98.2159 17.152 98.1445 16.9797 98.1445 16.8V12.2071L97.0155 12.2546L96.5481 9.17681L98.0226 9.11584H98.1513C98.9718 9.11584 99.7586 9.44177 100.339 10.0219C100.919 10.6021 101.245 11.3889 101.245 12.2094L101.238 12.2071Z" fill="#171717"/>
<path d="M91.5826 6.32258C91.5826 6.46152 91.5274 6.59476 91.4291 6.69301C91.3309 6.79125 91.1976 6.84645 91.0587 6.84645H88.5748C88.4359 6.84645 88.3026 6.79125 88.2044 6.69301C88.1062 6.59476 88.051 6.46152 88.051 6.32258C88.051 6.18364 88.1062 6.05039 88.2044 5.95214C88.3026 5.8539 88.4359 5.79871 88.5748 5.79871H91.0587C91.1976 5.79871 91.3309 5.8539 91.4291 5.95214C91.5274 6.05039 91.5826 6.18364 91.5826 6.32258Z" fill="#171717"/>
<path d="M84.3681 6.32257C84.3681 6.46151 84.3129 6.59476 84.2146 6.693C84.1164 6.79125 83.9831 6.84644 83.8442 6.84644H83.1261V7.5645C83.1261 7.70344 83.0709 7.83669 82.9727 7.93494C82.8744 8.03318 82.7412 8.08837 82.6023 8.08837C82.4633 8.08837 82.3301 8.03318 82.2318 7.93494C82.1336 7.83669 82.0784 7.70344 82.0784 7.5645V6.83741H81.3603C81.2214 6.83741 81.0881 6.78221 80.9899 6.68397C80.8916 6.58572 80.8364 6.45248 80.8364 6.31354C80.8364 6.1746 80.8916 6.04135 80.9899 5.9431C81.0881 5.84486 81.2214 5.78966 81.3603 5.78966H82.0784V5.0716C82.0784 4.93266 82.1336 4.79941 82.2318 4.70117C82.3301 4.60292 82.4633 4.54773 82.6023 4.54773C82.7412 4.54773 82.8744 4.60292 82.9727 4.70117C83.0709 4.79941 83.1261 4.93266 83.1261 5.0716V5.78966H83.8442C83.9138 5.78965 83.9826 5.8035 84.0468 5.83039C84.1109 5.85728 84.1691 5.89668 84.2179 5.94628C84.2666 5.99589 84.305 6.05471 84.3308 6.11932C84.3566 6.18392 84.3693 6.25302 84.3681 6.32257Z" fill="#171717"/>
<path d="M95.9677 5.51418C95.7609 3.98671 94.9914 2.59145 93.8098 1.60159C92.6283 0.61173 91.1197 0.098562 89.5797 0.162567L81.6493 0.503535C80.1928 0.560699 78.8034 1.13064 77.7262 2.11273C76.6491 3.09482 75.9536 4.4259 75.7626 5.87095L75.1055 10.1613L74.6268 13.2774L74.5974 13.4761V13.5032C74.4555 14.5612 74.739 15.6324 75.3859 16.4816C76.0327 17.3308 76.99 17.8887 78.0477 18.0329C78.2246 18.0544 78.4025 18.0649 78.5806 18.0645C79.1365 18.0643 79.6862 17.9491 80.1953 17.726C80.7044 17.503 81.1618 17.1769 81.5387 16.7684L84.8129 12.8461C85.531 12.8168 89.8055 12.5142 90.6342 12.4781H90.6703C91.8158 12.3201 92.894 11.8436 93.7819 11.1029C95.7758 9.57644 96.0648 7.8287 95.9677 5.51418ZM89.9545 9.53354L87.7326 9.63289L86.8158 9.67128L83.44 9.82031L80.7642 13.02L79.3145 14.7587C79.1642 14.9112 78.97 15.0128 78.7591 15.0493C78.5481 15.0858 78.331 15.0554 78.1383 14.9622C77.9455 14.8691 77.7867 14.7179 77.6842 14.53C77.5817 14.342 77.5407 14.1267 77.5668 13.9142L77.6842 13.1487L78.1606 10.0326L78.7613 6.11031C78.8922 5.39817 79.262 4.75194 79.8096 4.27822C80.3572 3.8045 81.05 3.53159 81.7735 3.5045L89.7016 3.16128C90.12 3.14512 90.5375 3.21152 90.9303 3.35671C91.323 3.5019 91.6833 3.72302 91.9906 4.00745C92.2979 4.29188 92.5461 4.63406 92.7212 5.01443C92.8962 5.3948 92.9946 5.80593 93.0108 6.22434C93.027 6.64275 92.9606 7.06024 92.8154 7.45299C92.6702 7.84573 92.4491 8.20603 92.1646 8.51332C91.8802 8.82061 91.538 9.06886 91.1576 9.24391C90.7773 9.41896 90.3661 9.51737 89.9477 9.53354H89.9545Z" fill="#171717"/>
<path d="M96.3764 16.4703C96.0565 16.8923 95.6561 17.2467 95.1984 17.513C94.7406 17.7792 94.2347 17.9521 93.7097 18.0216C93.5316 18.0459 93.352 18.058 93.1722 18.0577C92.6161 18.0575 92.066 17.9422 91.5566 17.7191C91.0471 17.4961 90.5893 17.1701 90.2119 16.7616C90.1934 16.7431 90.1761 16.7235 90.16 16.7029L86.9987 12.898L86.9242 12.81L86.4387 12.2251C86.2712 12.022 86.1599 11.7785 86.116 11.5189C86.0721 11.2593 86.0971 10.9928 86.1886 10.7459C86.28 10.499 86.4347 10.2804 86.6371 10.112C86.8395 9.94368 87.0825 9.83139 87.3419 9.78642L87.6987 9.77061H87.719C87.9172 9.78709 88.1102 9.8429 88.2866 9.93479C88.463 10.0267 88.6193 10.1528 88.7464 10.3058L90.6658 12.618L90.7674 12.74L92.4339 14.7474C92.5836 14.9013 92.778 15.0043 92.9895 15.0416C93.201 15.0789 93.4188 15.0487 93.6122 14.9552C93.8056 14.8618 93.9646 14.7099 94.0668 14.521C94.169 14.3321 94.2092 14.1158 94.1816 13.9029L93.9852 12.6067L93.7774 11.2519L93.5155 9.53803L93.0323 6.25254C92.9777 5.87401 93.0696 5.48892 93.2892 5.17583C93.5089 4.86275 93.8397 4.64527 94.2142 4.56778C94.5887 4.49028 94.9787 4.55861 95.3046 4.75881C95.6304 4.95902 95.8676 5.27602 95.9677 5.64512C95.9815 5.69406 95.9921 5.74385 95.9994 5.79416L96.5481 9.40706L97.0155 12.4848L97.1668 13.4716C97.1668 13.4716 97.1668 13.4874 97.1668 13.4964C97.2379 14.0197 97.2047 14.552 97.0691 15.0624C96.9334 15.5728 96.698 16.0513 96.3764 16.4703Z" fill="#171717"/>
<path d="M75.1055 10.0732L74.6268 13.1894L17.9832 15.5536V16.8C17.9832 16.9797 17.9119 17.152 17.7848 17.279C17.6578 17.4061 17.4855 17.4774 17.3058 17.4774H15.5671C15.3874 17.4774 15.2151 17.4061 15.0881 17.279C14.961 17.152 14.8897 16.9797 14.8897 16.8V15.5536C14.8896 14.7553 15.198 13.9879 15.7506 13.4118C16.3031 12.8357 17.057 12.4955 17.8545 12.4623L57.9352 10.789L75.1055 10.0732Z" fill="#171717"/>
<path d="M25.2361 22.33C24.6213 21.4098 23.743 20.6968 22.7161 20.2842C21.5048 19.8074 20.2105 19.5771 18.909 19.6068H11.5161C11.4261 19.603 11.3363 19.6179 11.2524 19.6505C11.1685 19.6832 11.0923 19.733 11.0286 19.7967C10.9649 19.8604 10.9151 19.9366 10.8825 20.0205C10.8498 20.1044 10.8349 20.1942 10.8387 20.2842V37.8971C10.8349 37.9871 10.8498 38.0769 10.8825 38.1608C10.9151 38.2447 10.9649 38.321 11.0286 38.3846C11.0923 38.4483 11.1685 38.4981 11.2524 38.5308C11.3363 38.5635 11.4261 38.5784 11.5161 38.5745H14.6006C14.6906 38.5784 14.7804 38.5635 14.8643 38.5308C14.9483 38.4981 15.0245 38.4483 15.0882 38.3846C15.1519 38.321 15.2016 38.2447 15.2343 38.1608C15.267 38.0769 15.2819 37.9871 15.2781 37.8971V31.7732H18.909C20.208 31.8022 21.5004 31.5814 22.7161 31.1229C23.6664 30.7571 24.4943 30.1311 25.1052 29.3165C25.1503 29.2555 25.1932 29.1945 25.2361 29.1313C25.3433 28.9734 25.4406 28.809 25.5274 28.639C25.6732 28.3495 25.7919 28.0472 25.8819 27.7358C25.9473 27.5135 25.9986 27.2872 26.0355 27.0584C26.1098 26.6198 26.1461 26.1755 26.1439 25.7307C26.1439 24.3833 25.8413 23.2498 25.2361 22.33ZM20.9277 27.7358C20.4129 28.1874 19.6948 28.4132 18.7735 28.4132H15.8742C15.6945 28.4132 15.5222 28.3419 15.3952 28.2148C15.2681 28.0878 15.1968 27.9155 15.1968 27.7358V22.9939H18.7735C19.8032 22.9939 20.5484 23.2468 21.009 23.7526C21.4813 24.2901 21.7287 24.9886 21.7 25.7036C21.7133 26.1694 21.6223 26.6323 21.4335 27.0584C21.3143 27.3172 21.142 27.548 20.9277 27.7358Z" fill="#171717"/>
<path d="M33.1348 19.7965C33.0708 19.7332 32.9945 19.6838 32.9106 19.6512C32.8267 19.6185 32.737 19.6034 32.6471 19.6068H29.5806C29.4907 19.603 29.4009 19.6179 29.3169 19.6505C29.233 19.6832 29.1568 19.733 29.0931 19.7967C29.0294 19.8604 28.9797 19.9366 28.947 20.0205C28.9143 20.1044 28.8994 20.1942 28.9032 20.2842V37.8971C28.8994 37.9871 28.9143 38.0769 28.947 38.1608C28.9797 38.2447 29.0294 38.321 29.0931 38.3846C29.1568 38.4483 29.233 38.4981 29.3169 38.5308C29.4009 38.5635 29.4907 38.5784 29.5806 38.5745H32.6426C32.7326 38.5784 32.8224 38.5635 32.9063 38.5308C32.9902 38.4981 33.0664 38.4483 33.1301 38.3846C33.1938 38.321 33.2436 38.2447 33.2762 38.1608C33.3089 38.0769 33.3238 37.9871 33.32 37.8971V20.2842C33.3239 20.1946 33.3095 20.1051 33.2777 20.0212C33.2459 19.9374 33.1973 19.8609 33.1348 19.7965Z" fill="#171717"/>
<path d="M52.9697 19.7829C52.9186 19.726 52.8559 19.6808 52.7857 19.6504C52.7156 19.62 52.6397 19.6051 52.5632 19.6068H49.7181C49.6042 19.5987 49.4898 19.6146 49.3825 19.6535C49.2751 19.6924 49.1771 19.7534 49.0948 19.8326C48.9723 19.9546 48.8715 20.0966 48.7968 20.2526L46.6403 27.0539L46.4145 27.7313L46.1277 28.6345L45.9019 29.312L44.5742 33.5029L43.2374 29.312L43.0116 28.6345L42.7248 27.7313L42.499 27.0539L40.329 20.2526C40.2702 20.0913 40.1725 19.9471 40.0445 19.8326C39.9591 19.7539 39.8587 19.6934 39.7492 19.6546C39.6398 19.6158 39.5236 19.5995 39.4077 19.6068H36.6032C36.5268 19.6051 36.4509 19.62 36.3807 19.6504C36.3106 19.6808 36.2478 19.726 36.1968 19.7829C36.0936 19.8878 36.0353 20.0287 36.0342 20.1758C36.0352 20.2578 36.0443 20.3395 36.0613 20.4197L38.2358 27.0584L38.4616 27.7358L38.7597 28.6391L38.9855 29.3165L41.7606 37.7887C41.8312 38.003 41.9575 38.1947 42.1264 38.3442C42.3202 38.5037 42.5669 38.5843 42.8174 38.57H46.3581C46.6172 38.5872 46.8734 38.5066 47.0761 38.3442C47.2432 38.1981 47.3615 38.0042 47.4148 37.7887L50.19 29.3165L50.4158 28.6391L50.7139 27.7358L50.9397 27.0584L53.1142 20.4197C53.1312 20.3395 53.1402 20.2578 53.1413 20.1758C53.1377 20.0274 53.0761 19.8864 52.9697 19.7829Z" fill="#171717"/>
<path d="M71.3142 37.7616L68.1935 29.3165L67.3581 27.0584L64.8742 20.3384C64.8192 20.1384 64.706 19.9592 64.549 19.8236C64.3594 19.6662 64.1177 19.5856 63.8716 19.5978H60.3942C60.1481 19.5856 59.9064 19.6662 59.7168 19.8236C59.5581 19.9586 59.4434 20.1378 59.3871 20.3384L56.9032 27.0584L56.6526 27.7358L56.3184 28.639L56.0677 29.3165L52.9426 37.7616C52.9236 37.8415 52.9145 37.9234 52.9155 38.0055C52.9166 38.1526 52.9749 38.2935 53.0781 38.3984C53.1291 38.4553 53.1919 38.5005 53.262 38.5309C53.3322 38.5613 53.4081 38.5762 53.4845 38.5745H56.3026C56.4101 38.5846 56.5186 38.5733 56.6217 38.5411C56.7248 38.5089 56.8205 38.4566 56.9032 38.3871C57.0101 38.2897 57.0935 38.1692 57.1471 38.0349L58.3077 35H65.949L67.1142 38.0349C67.1678 38.1692 67.2511 38.2897 67.3581 38.3871C67.44 38.4564 67.5349 38.5089 67.6372 38.5414C67.7395 38.574 67.8472 38.586 67.9542 38.5768H70.7723C70.8487 38.5784 70.9246 38.5636 70.9947 38.5332C71.0649 38.5028 71.1276 38.4576 71.1787 38.4007C71.2818 38.2958 71.3401 38.1549 71.3413 38.0078C71.3424 37.9249 71.3333 37.8422 71.3142 37.7616ZM60.2745 31.5023C60.1663 31.502 60.0597 31.4757 59.9637 31.4258C59.8677 31.3759 59.7851 31.3036 59.7228 31.2152C59.6604 31.1267 59.6201 31.0246 59.6054 30.9175C59.5906 30.8103 59.6017 30.7011 59.6377 30.599L60.0894 29.321L60.3355 28.6436L60.6606 27.7403L60.9068 27.0629L62.1284 23.7097L63.3297 27.0697L63.5713 27.7471L63.8965 28.6503L64.1381 29.3278L64.9194 31.5136L60.2745 31.5023Z" fill="#171717"/>
<path d="M89.0084 28C88.9443 27.9368 88.868 27.8873 88.7841 27.8547C88.7003 27.8221 88.6106 27.807 88.5206 27.8103H81.7826C81.7404 27.8104 81.6989 27.8197 81.6606 27.8374C81.5309 27.8885 81.4201 27.9783 81.3433 28.0947C81.2665 28.2111 81.2275 28.3484 81.2316 28.4877V30.2219C81.2305 30.3987 81.2986 30.5689 81.4213 30.6961C81.4781 30.7598 81.5476 30.8108 81.6254 30.8459C81.7033 30.8809 81.7876 30.8991 81.8729 30.8994H84.1581C84.3377 30.8994 84.51 30.9707 84.6371 31.0978C84.7641 31.2248 84.8355 31.3971 84.8355 31.5768C84.8654 32.3242 84.6871 33.0653 84.3206 33.7174C83.9941 34.2627 83.5065 34.6934 82.9252 34.9503C82.2965 35.2206 81.6177 35.3546 80.9335 35.3432C79.7955 35.3432 78.8877 35.0361 78.2103 34.4219C77.5329 33.8077 77.1671 32.7961 77.1129 31.3871C77.0903 30.6886 77.0775 29.9961 77.0745 29.3097C77.0745 29.0839 77.0745 28.8581 77.0745 28.6323C77.0745 28.3297 77.0745 28.0294 77.0745 27.729C77.0745 27.5032 77.0745 27.2774 77.0903 27.0516L77.1039 26.6452C77.1581 25.2903 77.5148 24.3118 78.1742 23.7097C78.8335 23.1075 79.7323 22.8065 80.8703 22.8065C81.5034 22.7811 82.1338 22.9017 82.7129 23.1587C83.1441 23.3623 83.5285 23.6529 83.8419 24.0123C84.0976 24.3066 84.3035 24.6406 84.4516 25.0013C84.5102 25.1287 84.5984 25.2402 84.709 25.3265C84.8341 25.4059 84.9811 25.4438 85.129 25.4348H88.4935C88.5742 25.4383 88.6547 25.4244 88.7295 25.394C88.8043 25.3636 88.8717 25.3175 88.9271 25.2587C89.0339 25.1452 89.0922 24.9945 89.0897 24.8387C89.0527 24.1789 88.8576 23.5376 88.5206 22.969C88.1167 22.2695 87.5797 21.6558 86.94 21.1626C86.1758 20.5702 85.3137 20.1162 84.3929 19.8213C83.2546 19.4589 82.0647 19.285 80.8703 19.3065C79.3823 19.2799 77.9067 19.5814 76.5484 20.1894C75.3862 20.7085 74.4051 21.5623 73.7303 22.6416C73.071 23.7074 72.7142 24.999 72.66 26.5165C72.66 26.6948 72.66 26.8755 72.66 27.0584C72.66 27.2842 72.66 27.51 72.66 27.7358C72.66 28.0316 72.66 28.3319 72.66 28.639C72.66 28.77 72.66 28.9032 72.66 29.0365V29.3165C72.66 30.0977 72.669 30.8354 72.6871 31.5294C72.7413 33.0829 73.0981 34.4061 73.7574 35.499C74.4176 36.5882 75.39 37.4536 76.5484 37.9829C77.7527 38.5519 79.2024 38.8365 80.8974 38.8365C82.4121 38.8703 83.9155 38.5697 85.3006 37.9558C86.4982 37.4195 87.508 36.5372 88.2 35.4223C88.8774 34.3203 89.2161 32.9926 89.2161 31.439V28.4945C89.2181 28.4021 89.2006 28.3104 89.1648 28.2252C89.129 28.14 89.0757 28.0633 89.0084 28Z" fill="#171717"/>
<path d="M108.816 37.7616L105.691 29.3165L105.44 28.639L105.106 27.7358L104.855 27.0584L102.372 20.3384C102.317 20.1384 102.203 19.9592 102.046 19.8236C101.857 19.6662 101.615 19.5856 101.369 19.5978H97.8961C97.65 19.5856 97.4083 19.6662 97.2187 19.8236C97.0617 19.9592 96.9486 20.1384 96.8935 20.3384L94.4097 27.0584L94.159 27.7358L93.5742 29.3165L90.449 37.7616C90.4301 37.8415 90.421 37.9234 90.4219 38.0055C90.4231 38.1526 90.4814 38.2935 90.5845 38.3984C90.6356 38.4553 90.6983 38.5005 90.7685 38.5309C90.8386 38.5613 90.9145 38.5762 90.991 38.5745H93.809C93.916 38.5837 94.0237 38.5717 94.126 38.5392C94.2283 38.5066 94.3232 38.4542 94.4052 38.3849C94.5121 38.2874 94.5955 38.167 94.649 38.0326L95.8097 35H103.451L104.616 38.0349C104.67 38.1692 104.753 38.2897 104.86 38.3871C104.942 38.4564 105.037 38.5089 105.139 38.5414C105.241 38.574 105.349 38.586 105.456 38.5768H108.274C108.351 38.5784 108.427 38.5636 108.497 38.5332C108.567 38.5028 108.63 38.4576 108.681 38.4007C108.784 38.2958 108.842 38.1549 108.843 38.0078C108.844 37.9249 108.835 37.8422 108.816 37.7616ZM97.7742 31.5023C97.666 31.502 97.5594 31.4757 97.4634 31.4258C97.3674 31.3759 97.2848 31.3036 97.2224 31.2152C97.1601 31.1267 97.1198 31.0246 97.105 30.9175C97.0902 30.8103 97.1013 30.7011 97.1374 30.599L97.589 29.321L97.8352 28.6436L98.1603 27.7403L98.4064 27.0629L99.6303 23.7097L100.832 27.0697L101.073 27.7471L101.398 28.6503L101.64 29.3278L102.421 31.5136L97.7742 31.5023Z" fill="#171717"/>
</svg>
