<svg width="97" height="96" viewBox="0 0 97 96" fill="none" xmlns="http://www.w3.org/2000/svg">
<g clip-path="url(#clip0_1_73)">
<path d="M65.1429 0H31.7143C14.2286 0 0 14.2286 0 31.7143V64.2857C0 81.7714 14.2286 96 31.7143 96H65.1429C82.6286 96 96.8571 81.7714 96.8571 64.2857V31.7143C96.8571 14.2286 82.6286 0 65.1429 0ZM90.8571 64.2857C90.8571 78.4286 79.2857 90 65.1429 90H31.7143C17.5714 90 6 78.4286 6 64.2857V31.7143C6 17.5714 17.5714 6 31.7143 6H65.1429C79.2857 6 90.8571 17.5714 90.8571 31.7143V64.2857Z" fill="#A3F7BF"/>
<path d="M65.1429 6H31.7143C17.5714 6 6 17.5714 6 31.7143V64.2857C6 78.4286 17.5714 90 31.7143 90H65.1429C79.2857 90 90.8571 78.4286 90.8571 64.2857V31.7143C90.8571 17.5714 79.2857 6 65.1429 6ZM18.8571 47.8286C17.2286 47.8286 15.8571 46.4571 15.8571 44.8286C15.8571 43.2 17.2286 41.8286 18.8571 41.8286H53.6571C55.2857 41.8286 56.6571 43.2 56.6571 44.8286C56.6571 46.4571 55.2857 47.8286 53.6571 47.8286H18.8571ZM80.4 56.4857L64.0286 70.0286C63.5143 70.4571 62.8286 70.7143 62.1429 70.7143C62.0571 70.7143 61.9714 70.7143 61.8 70.7143C61.0286 70.6286 60.2571 70.2 59.7429 69.6L54.6857 63.2571C53.6571 61.9714 53.9143 60.0857 55.2 59.0571C56.4857 58.0286 58.3714 58.2 59.4 59.5714L62.5714 63.5143L76.5429 51.9429C77.8286 50.9143 79.7143 51.0857 80.7429 52.3714C81.7714 53.4857 81.6 55.3714 80.4 56.4857ZM78.8571 31.2857H18.8571C17.2286 31.2857 15.8571 29.9143 15.8571 28.2857C15.8571 26.6571 17.2286 25.2857 18.8571 25.2857H78.8571C80.4857 25.2857 81.8571 26.6571 81.8571 28.2857C81.8571 29.9143 80.4857 31.2857 78.8571 31.2857Z" fill="white"/>
<path d="M78.8571 25.2857H18.8571C17.2286 25.2857 15.8571 26.6571 15.8571 28.2857C15.8571 29.9143 17.2286 31.2857 18.8571 31.2857H78.8571C80.4857 31.2857 81.8571 29.9143 81.8571 28.2857C81.8571 26.6571 80.4857 25.2857 78.8571 25.2857ZM53.6571 41.8286H18.8571C17.2286 41.8286 15.8571 43.2 15.8571 44.8286C15.8571 46.4571 17.2286 47.8286 18.8571 47.8286H53.6571C55.2857 47.8286 56.6571 46.4571 56.6571 44.8286C56.6571 43.2 55.3714 41.8286 53.6571 41.8286Z" fill="#764AF1"/>
<path d="M80.4 56.4857L64.0286 70.0286C63.5143 70.4571 62.8286 70.7143 62.1428 70.7143C62.0571 70.7143 61.9714 70.7143 61.8 70.7143C61.0286 70.6286 60.2571 70.2 59.7428 69.6L54.6857 63.2571C53.6571 61.9714 53.9143 60.0857 55.2 59.0571C56.4857 58.0286 58.3714 58.2 59.4 59.5714L62.5714 63.5143L76.5428 51.9429C77.8286 50.9143 79.7143 51.0857 80.7428 52.3714C81.7714 53.4857 81.6 55.3714 80.4 56.4857Z" fill="#764AF1"/>
</g>
<defs>
<clipPath id="clip0_1_73">
<rect width="96.8571" height="96" fill="white"/>
</clipPath>
</defs>
</svg>
