<svg width="97" height="96" viewBox="0 0 97 96" fill="none" xmlns="http://www.w3.org/2000/svg">
<path d="M65.1429 0H31.7143C14.2286 0 0 14.2286 0 31.7143V64.2857C0 81.7714 14.2286 96 31.7143 96H65.1429C82.6286 96 96.8571 81.7714 96.8571 64.2857V31.7143C96.8571 14.2286 82.6286 0 65.1429 0ZM90.8571 64.2857C90.8571 78.4286 79.2857 90 65.1429 90H31.7143C17.5714 90 6 78.4286 6 64.2857V31.7143C6 17.5714 17.5714 6 31.7143 6H65.1429C79.2857 6 90.8571 17.5714 90.8571 31.7143V64.2857Z" fill="#A3F7BF"/>
<path d="M65.1429 6H31.7143C17.5714 6 6 17.5714 6 31.7143V64.2857C6 78.4286 17.5714 90 31.7143 90H65.1429C79.2857 90 90.8571 78.4286 90.8571 64.2857V31.7143C90.8571 17.5714 79.2857 6 65.1429 6ZM78.8571 70.7143H63.7714C62.8286 70.7143 61.8857 70.2857 61.3714 69.5143L56.8286 63.3429L53.3143 69.2571C52.8 70.2 51.7714 70.7143 50.7429 70.7143C50.5714 70.7143 50.4857 70.7143 50.3143 70.7143C49.1143 70.5429 48.0857 69.6 47.8286 68.4857L41.0571 40.7143L33.9429 68.4857C33.6 69.7714 32.5714 70.6286 31.2857 70.7143C30 70.8 28.8 70.0286 28.2857 68.8286L27 65.7429L25.7143 68.8286C25.2857 69.9429 24.1714 70.7143 22.9714 70.7143H18.8571C17.2286 70.7143 15.8571 69.3429 15.8571 67.7143C15.8571 66.0857 17.2286 64.7143 18.8571 64.7143H20.9143L24.1714 56.7429C24.6 55.6286 25.7143 54.8571 26.9143 54.8571C28.1143 54.8571 29.2286 55.6286 29.6571 56.7429L30.2571 58.2857L38.1429 27.6C38.4857 26.3143 39.6857 25.3714 41.0571 25.3714C42.4286 25.3714 43.6286 26.3143 43.9714 27.6857L51.7714 59.9143L53.8286 56.4C54.3429 55.5429 55.2857 54.9429 56.2286 54.9429C57.2571 54.9429 58.2 55.3714 58.8 56.1429L65.1429 64.8H78.8571C80.4857 64.8 81.8571 66.1714 81.8571 67.8C81.8571 69.4286 80.4857 70.7143 78.8571 70.7143Z" fill="white"/>
<path d="M81.8571 67.7143C81.8571 69.3429 80.4857 70.7143 78.8571 70.7143H63.7714C62.8286 70.7143 61.8857 70.2857 61.3714 69.5143L56.8286 63.3429L53.3143 69.2571C52.8 70.2 51.7714 70.7143 50.7429 70.7143C50.5714 70.7143 50.4857 70.7143 50.3143 70.7143C49.1143 70.5429 48.0857 69.6 47.8286 68.4857L41.0571 40.7143L33.9429 68.4857C33.6 69.7714 32.5714 70.6286 31.2857 70.7143C30 70.8 28.8 70.0286 28.2857 68.8286L27 65.7429L25.7143 68.8286C25.2857 69.9429 24.1714 70.7143 22.9714 70.7143H18.8571C17.2286 70.7143 15.8571 69.3429 15.8571 67.7143C15.8571 66.0857 17.2286 64.7143 18.8571 64.7143H20.9143L24.1714 56.7429C24.6 55.6286 25.7143 54.8571 26.9143 54.8571C28.1143 54.8571 29.2286 55.6286 29.6571 56.7429L30.2571 58.2857L38.1429 27.6C38.4857 26.3143 39.6857 25.3714 41.0571 25.3714C42.4286 25.3714 43.6286 26.3143 43.9714 27.6857L51.7714 59.9143L53.8286 56.4C54.3429 55.5429 55.2857 54.9429 56.2286 54.9429C57.2571 54.9429 58.2 55.3714 58.8 56.1429L65.1429 64.8H78.8571C80.4857 64.7143 81.8571 66.0857 81.8571 67.7143Z" fill="#764AF1"/>
</svg>
