<svg width="106" height="104" viewBox="0 0 106 104" fill="none" xmlns="http://www.w3.org/2000/svg">
<g clip-path="url(#clip0_1_84)" filter="url(#filter0_d_1_84)">
<g filter="url(#filter1_d_1_84)">
<path d="M68.731 3H35.3024C17.8167 3 3.58813 17.2286 3.58813 34.7143V67.2857C3.58813 84.7714 17.8167 99 35.3024 99H68.731C86.2167 99 100.445 84.7714 100.445 67.2857V34.7143C100.445 17.2286 86.2167 3 68.731 3ZM94.4453 67.2857C94.4453 81.4286 82.8738 93 68.731 93H35.3024C21.1596 93 9.58813 81.4286 9.58813 67.2857V34.7143C9.58813 20.5714 21.1596 9 35.3024 9H68.731C82.8738 9 94.4453 20.5714 94.4453 34.7143V67.2857Z" fill="#A3F7BF"/>
<path d="M68.731 9H35.3024C21.1596 9 9.58813 20.5714 9.58813 34.7143V67.2857C9.58813 81.4286 21.1596 93 35.3024 93H68.731C82.8738 93 94.4453 81.4286 94.4453 67.2857V34.7143C94.4453 20.5714 82.8738 9 68.731 9ZM82.4453 73.7143H67.3596C66.4167 73.7143 65.4738 73.2857 64.9596 72.5143L60.4167 66.3429L56.9024 72.2571C56.3881 73.2 55.3596 73.7143 54.331 73.7143C54.1596 73.7143 54.0738 73.7143 53.9024 73.7143C52.7024 73.5429 51.6738 72.6 51.4167 71.4857L44.6453 43.7143L37.531 71.4857C37.1881 72.7714 36.1596 73.6286 34.8738 73.7143C33.5881 73.8 32.3881 73.0286 31.8738 71.8286L30.5881 68.7429L29.3024 71.8286C28.8738 72.9429 27.7596 73.7143 26.5596 73.7143H22.4453C20.8167 73.7143 19.4453 72.3429 19.4453 70.7143C19.4453 69.0857 20.8167 67.7143 22.4453 67.7143H24.5024L27.7596 59.7429C28.1881 58.6286 29.3024 57.8571 30.5024 57.8571C31.7024 57.8571 32.8167 58.6286 33.2453 59.7429L33.8453 61.2857L41.731 30.6C42.0738 29.3143 43.2738 28.3714 44.6453 28.3714C46.0167 28.3714 47.2167 29.3143 47.5596 30.6857L55.3596 62.9143L57.4167 59.4C57.931 58.5429 58.8738 57.9429 59.8167 57.9429C60.8453 57.9429 61.7881 58.3714 62.3881 59.1429L68.731 67.8H82.4453C84.0738 67.8 85.4453 69.1714 85.4453 70.8C85.4453 72.4286 84.0738 73.7143 82.4453 73.7143Z" fill="white"/>
</g>
<path d="M85.4453 70.7143C85.4453 72.3429 84.0738 73.7143 82.4453 73.7143H67.3596C66.4167 73.7143 65.4739 73.2857 64.9596 72.5143L60.4167 66.3429L56.9024 72.2571C56.3881 73.2 55.3596 73.7143 54.331 73.7143C54.1596 73.7143 54.0738 73.7143 53.9024 73.7143C52.7024 73.5429 51.6739 72.6 51.4167 71.4857L44.6453 43.7143L37.531 71.4857C37.1881 72.7714 36.1596 73.6286 34.8738 73.7143C33.5881 73.8 32.3881 73.0286 31.8738 71.8286L30.5881 68.7429L29.3024 71.8286C28.8738 72.9429 27.7596 73.7143 26.5596 73.7143H22.4453C20.8167 73.7143 19.4453 72.3429 19.4453 70.7143C19.4453 69.0857 20.8167 67.7143 22.4453 67.7143H24.5024L27.7596 59.7429C28.1881 58.6286 29.3024 57.8571 30.5024 57.8571C31.7024 57.8571 32.8167 58.6286 33.2453 59.7429L33.8453 61.2857L41.731 30.6C42.0739 29.3143 43.2739 28.3714 44.6453 28.3714C46.0167 28.3714 47.2167 29.3143 47.5596 30.6857L55.3596 62.9143L57.4167 59.4C57.931 58.5429 58.8738 57.9429 59.8167 57.9429C60.8453 57.9429 61.7881 58.3714 62.3881 59.1429L68.731 67.8H82.4453C84.0738 67.7143 85.4453 69.0857 85.4453 70.7143Z" fill="#764AF1"/>
</g>
<defs>
<filter id="filter0_d_1_84" x="0.588135" y="0" width="104.857" height="104" filterUnits="userSpaceOnUse" color-interpolation-filters="sRGB">
<feFlood flood-opacity="0" result="BackgroundImageFix"/>
<feColorMatrix in="SourceAlpha" type="matrix" values="0 0 0 0 0 0 0 0 0 0 0 0 0 0 0 0 0 0 127 0" result="hardAlpha"/>
<feOffset dx="1" dy="1"/>
<feGaussianBlur stdDeviation="2"/>
<feComposite in2="hardAlpha" operator="out"/>
<feColorMatrix type="matrix" values="0 0 0 0 0 0 0 0 0 0 0 0 0 0 0 0 0 0 0.56 0"/>
<feBlend mode="normal" in2="BackgroundImageFix" result="effect1_dropShadow_1_84"/>
<feBlend mode="normal" in="SourceGraphic" in2="effect1_dropShadow_1_84" result="shape"/>
</filter>
<filter id="filter1_d_1_84" x="-0.411865" y="0" width="104.857" height="104" filterUnits="userSpaceOnUse" color-interpolation-filters="sRGB">
<feFlood flood-opacity="0" result="BackgroundImageFix"/>
<feColorMatrix in="SourceAlpha" type="matrix" values="0 0 0 0 0 0 0 0 0 0 0 0 0 0 0 0 0 0 127 0" result="hardAlpha"/>
<feOffset dy="1"/>
<feGaussianBlur stdDeviation="2"/>
<feComposite in2="hardAlpha" operator="out"/>
<feColorMatrix type="matrix" values="0 0 0 0 0 0 0 0 0 0 0 0 0 0 0 0 0 0 0.25 0"/>
<feBlend mode="normal" in2="BackgroundImageFix" result="effect1_dropShadow_1_84"/>
<feBlend mode="normal" in="SourceGraphic" in2="effect1_dropShadow_1_84" result="shape"/>
</filter>
<clipPath id="clip0_1_84">
<rect width="96.8571" height="96" fill="white" transform="translate(3.58813 3)"/>
</clipPath>
</defs>
</svg>
