<svg width="98" height="96" viewBox="0 0 98 96" fill="none" xmlns="http://www.w3.org/2000/svg">
<g clip-path="url(#clip0_1_93)">
<path d="M65.3189 0H31.8903C14.4046 0 0.176025 14.2286 0.176025 31.7143V64.2857C0.176025 81.7714 14.4046 96 31.8903 96H65.3189C82.8046 96 97.0332 81.7714 97.0332 64.2857V31.7143C97.0332 14.2286 82.8046 0 65.3189 0ZM91.0332 64.2857C91.0332 78.4286 79.4617 90 65.3189 90H31.8903C17.7475 90 6.17602 78.4286 6.17602 64.2857V31.7143C6.17602 17.5714 17.7475 6 31.8903 6H65.3189C79.4617 6 91.0332 17.5714 91.0332 31.7143V64.2857Z" fill="#A3F7BF"/>
<path d="M65.3189 6H31.8903C17.7475 6 6.17603 17.5714 6.17603 31.7143V64.2857C6.17603 78.4286 17.7475 90 31.8903 90H65.3189C79.4617 90 91.0332 78.4286 91.0332 64.2857V31.7143C91.0332 17.5714 79.4617 6 65.3189 6ZM79.8046 58.2857C78.176 58.2857 76.8046 57 76.7189 55.3714L76.2046 35.6571L61.2903 51.3429C60.5189 52.2 59.2332 52.4571 58.1189 52.1143L47.3189 48.4286L20.9189 70.0286C19.6332 71.0571 17.7475 70.8857 16.7189 69.6C15.6903 68.3143 15.8617 66.4286 17.1475 65.4L44.7475 42.7714C45.5189 42.0857 46.6332 41.9143 47.576 42.2571L58.2046 45.8571L71.8332 31.5429L52.0332 32.0571C50.4046 32.1429 49.0332 30.7714 48.9475 29.1429C48.8617 27.5143 50.2332 26.1429 51.8617 26.0571L78.8617 25.3714C80.4903 25.3714 81.8617 26.6571 81.9474 28.2857L82.6332 55.2857C82.8046 56.8286 81.5189 58.2 79.8046 58.2857Z" fill="white"/>
<path d="M82.7189 55.2C82.8046 56.8286 81.4332 58.2 79.8046 58.2857C78.176 58.3714 76.8046 57 76.7189 55.3714L76.2046 35.6571L61.2903 51.3429C60.5189 52.2 59.2332 52.4571 58.1189 52.1143L47.3189 48.4286L20.9189 70.0286C19.6332 71.0571 17.7475 70.8857 16.7189 69.6C15.6903 68.3143 15.8617 66.4286 17.1475 65.4L44.7475 42.7714C45.5189 42.0857 46.6332 41.9143 47.576 42.2571L58.2046 45.8571L71.8332 31.5429L52.0332 32.0571C50.4046 32.1429 49.0332 30.7714 48.9475 29.1429C48.8617 27.5143 50.2332 26.1429 51.8617 26.0571L78.8617 25.3714C80.4903 25.3714 81.8617 26.6571 81.9475 28.2857L82.7189 55.2Z" fill="#764AF1"/>
</g>
<defs>
<clipPath id="clip0_1_93">
<rect x="0.176025" width="96.8571" height="96" fill="white"/>
</clipPath>
</defs>
</svg>
