<svg width="97" height="96" viewBox="0 0 97 96" fill="none" xmlns="http://www.w3.org/2000/svg">
<path d="M65.1429 0H31.7143C14.2286 0 0 14.2286 0 31.7143V64.2857C0 81.7714 14.2286 96 31.7143 96H65.1429C82.6286 96 96.8571 81.7714 96.8571 64.2857V31.7143C96.8571 14.2286 82.6286 0 65.1429 0ZM90.8571 64.2857C90.8571 78.4286 79.2857 90 65.1429 90H31.7143C17.5714 90 6 78.4286 6 64.2857V31.7143C6 17.5714 17.5714 6 31.7143 6H65.1429C79.2857 6 90.8571 17.5714 90.8571 31.7143V64.2857Z" fill="#A3F7BF"/>
<path d="M65.1429 6H31.7143C17.5714 6 6 17.5714 6 31.7143V64.2857C6 78.4286 17.5714 90 31.7143 90H65.1429C79.2857 90 90.8571 78.4286 90.8571 64.2857V31.7143C90.8571 17.5714 79.2857 6 65.1429 6ZM79.6286 58.2857C78 58.2857 76.6286 57 76.5429 55.3714L76.0286 35.6571L61.1143 51.3429C60.3429 52.2 59.0571 52.4571 57.9429 52.1143L47.1429 48.4286L20.7429 70.0286C19.4571 71.0571 17.5714 70.8857 16.5429 69.6C15.5143 68.3143 15.6857 66.4286 16.9714 65.4L44.5714 42.7714C45.3429 42.0857 46.4571 41.9143 47.4 42.2571L58.0286 45.8571L71.6571 31.5429L51.8571 32.0571C50.2286 32.1429 48.8571 30.7714 48.7714 29.1429C48.6857 27.5143 50.0571 26.1429 51.6857 26.0571L78.6857 25.3714C80.3143 25.3714 81.6857 26.6571 81.7714 28.2857L82.4571 55.2857C82.6286 56.8286 81.3429 58.2 79.6286 58.2857Z" fill="white"/>
<path d="M82.5429 55.2C82.6286 56.8286 81.2571 58.2 79.6286 58.2857C78 58.3714 76.6286 57 76.5429 55.3714L76.0286 35.6571L61.1143 51.3429C60.3429 52.2 59.0571 52.4571 57.9429 52.1143L47.1429 48.4286L20.7429 70.0286C19.4571 71.0571 17.5714 70.8857 16.5429 69.6C15.5143 68.3143 15.6857 66.4286 16.9714 65.4L44.5714 42.7714C45.3429 42.0857 46.4571 41.9143 47.4 42.2571L58.0286 45.8571L71.6571 31.5429L51.8571 32.0571C50.2286 32.1429 48.8571 30.7714 48.7714 29.1429C48.6857 27.5143 50.0571 26.1429 51.6857 26.0571L78.6857 25.3714C80.3143 25.3714 81.6857 26.6571 81.7714 28.2857L82.5429 55.2Z" fill="#764AF1"/>
</svg>
