<svg width="1317" height="605" viewBox="0 0 1317 605" fill="none" xmlns="http://www.w3.org/2000/svg">
<g filter="url(#filter0_ii_88_46)">
<path d="M0 557C0 573.802 0 582.202 3.2698 588.62C6.14601 594.265 10.7354 598.854 16.3803 601.73C22.7976 605 31.1984 605 48 605H1231.06C1259.14 605 1273.18 605 1281.13 599.119C1288.06 593.992 1292.45 586.131 1293.18 577.541C1294.02 567.687 1286.66 555.734 1271.93 531.827L1019.93 122.682C1015.37 115.278 1013.09 111.576 1010.03 108.764C1007.32 106.273 1004.18 104.302 1000.76 102.949C996.895 101.421 992.57 100.981 983.919 100.101L52.8583 5.37764C34.5456 3.51456 25.3892 2.58302 18.3101 5.57826C12.092 8.20919 6.94315 12.8608 3.69637 18.7806C0 25.5203 0 34.7239 0 53.1312V557Z" fill="#764AF1"/>
</g>
<mask id="mask0_88_46" style="mask-type:alpha" maskUnits="userSpaceOnUse" x="0" y="3" width="1294" height="602">
<path d="M0 560C0 573.978 0 580.967 2.28361 586.481C5.32843 593.831 11.1687 599.672 18.5195 602.716C24.0326 605 31.0218 605 45 605H1236.43C1259.77 605 1271.44 605 1278.47 600.873C1287.85 595.371 1293.51 585.228 1293.28 574.36C1293.11 566.209 1286.99 556.273 1274.75 536.401L1019.15 121.42C1015.36 115.255 1013.46 112.172 1011.02 109.719C1007.78 106.448 1003.82 103.968 999.467 102.472C996.199 101.35 992.597 100.984 985.393 100.251L49.5546 5.04153C34.3218 3.4918 26.7055 2.71693 20.6582 4.69852C12.5952 7.34064 6.02813 13.2735 2.58348 21.0277C0 26.8433 0 34.499 0 49.8104V560Z" fill="#764AF1"/>
</mask>
<g mask="url(#mask0_88_46)">
<g opacity="0.6">
<g opacity="0.4" filter="url(#filter1_d_88_46)">
<path d="M588.293 699.182C588.293 665.12 583.671 634.643 575.584 607.154C569.808 588.031 561.721 570.103 552.478 554.566C539.77 533.65 524.173 515.723 506.266 501.381C490.092 487.636 471.607 476.879 451.967 468.513C418.463 454.171 381.493 447 342.79 447H120.972V553.968H293.112C373.406 553.968 432.326 570.103 451.389 641.216C453.122 646.595 454.277 653.168 455.433 659.144C457.166 671.096 458.321 684.243 458.321 699.182C458.321 821.688 391.891 842.604 293.69 842.604H120.972L120.972 662.729H-9L-9 951.365H342.79C473.34 951.365 588.293 870.69 588.293 699.182Z" fill="white"/>
</g>
</g>
</g>
<defs>
<filter id="filter0_ii_88_46" x="-2" y="1.64592" width="1297.25" height="605.354" filterUnits="userSpaceOnUse" color-interpolation-filters="sRGB">
<feFlood flood-opacity="0" result="BackgroundImageFix"/>
<feBlend mode="normal" in="SourceGraphic" in2="BackgroundImageFix" result="shape"/>
<feColorMatrix in="SourceAlpha" type="matrix" values="0 0 0 0 0 0 0 0 0 0 0 0 0 0 0 0 0 0 127 0" result="hardAlpha"/>
<feOffset dx="2" dy="2"/>
<feGaussianBlur stdDeviation="16.5"/>
<feComposite in2="hardAlpha" operator="arithmetic" k2="-1" k3="1"/>
<feColorMatrix type="matrix" values="0 0 0 0 0 0 0 0 0 0.25098 0 0 0 0 0.211765 0 0 0 0.33 0"/>
<feBlend mode="normal" in2="shape" result="effect1_innerShadow_88_46"/>
<feColorMatrix in="SourceAlpha" type="matrix" values="0 0 0 0 0 0 0 0 0 0 0 0 0 0 0 0 0 0 127 0" result="hardAlpha"/>
<feOffset dx="-2" dy="-2"/>
<feGaussianBlur stdDeviation="16.5"/>
<feComposite in2="hardAlpha" operator="arithmetic" k2="-1" k3="1"/>
<feColorMatrix type="matrix" values="0 0 0 0 0 0 0 0 0 0.25098 0 0 0 0 0.211765 0 0 0 0.33 0"/>
<feBlend mode="normal" in2="effect1_innerShadow_88_46" result="effect2_innerShadow_88_46"/>
</filter>
<filter id="filter1_d_88_46" x="-24" y="440" width="619.293" height="526.365" filterUnits="userSpaceOnUse" color-interpolation-filters="sRGB">
<feFlood flood-opacity="0" result="BackgroundImageFix"/>
<feColorMatrix in="SourceAlpha" type="matrix" values="0 0 0 0 0 0 0 0 0 0 0 0 0 0 0 0 0 0 127 0" result="hardAlpha"/>
<feOffset dx="-4" dy="4"/>
<feGaussianBlur stdDeviation="5.5"/>
<feComposite in2="hardAlpha" operator="out"/>
<feColorMatrix type="matrix" values="0 0 0 0 0 0 0 0 0 0.25098 0 0 0 0 0.211765 0 0 0 0.25 0"/>
<feBlend mode="normal" in2="BackgroundImageFix" result="effect1_dropShadow_88_46"/>
<feBlend mode="normal" in="SourceGraphic" in2="effect1_dropShadow_88_46" result="shape"/>
</filter>
</defs>
</svg>
