<svg width="34" height="34" viewBox="0 0 34 34" fill="none" xmlns="http://www.w3.org/2000/svg">
<g filter="url(#filter0_d_1_15)">
<path d="M15.9884 28.2523C13.5672 28.2523 11.2003 27.5343 9.1871 26.1892C7.17391 24.844 5.60481 22.932 4.67824 20.6951C3.75166 18.4582 3.50923 15.9967 3.98159 13.622C4.45396 11.2472 5.6199 9.0659 7.33198 7.35381C9.04407 5.64173 11.2254 4.47578 13.6001 4.00342C15.9748 3.53106 18.4363 3.77349 20.6733 4.70007C22.9102 5.62664 24.8222 7.19573 26.1673 9.20893C27.5125 11.2221 28.2305 13.589 28.2305 16.0103C28.2242 19.2551 26.9324 22.3653 24.6379 24.6598C22.3435 26.9542 19.2333 28.246 15.9884 28.2523Z" fill="url(#paint0_linear_1_15)"/>
</g>
<path d="M24 24C28.4183 19.5817 28.4183 12.4183 24 8C19.5817 3.58172 12.4183 3.58172 8 8C3.58172 12.4183 3.58172 19.5817 8 24C12.4183 28.4183 19.5817 28.4183 24 24Z" fill="url(#paint1_linear_1_15)"/>
<path d="M19.4156 12.6212L18.7627 13.1313L15.9827 15.1971L13.2027 13.1109L12.5498 12.6008C12.396 12.4736 12.2082 12.3942 12.0098 12.3727C11.8113 12.3511 11.6109 12.3882 11.4333 12.4795C11.2558 12.5707 11.1089 12.712 11.0109 12.8859C10.9128 13.0598 10.868 13.2586 10.8818 13.4578V19.3697C10.8818 19.5536 10.9549 19.7301 11.085 19.8602C11.2151 19.9903 11.3916 20.0634 11.5756 20.0634H13.2027V16.1255L15.9827 18.2118L18.7627 16.1255V20.0634H20.3898C20.5738 20.0634 20.7503 19.9903 20.8804 19.8602C21.0105 19.7301 21.0836 19.5536 21.0836 19.3697V13.4578C21.0931 13.2603 21.0452 13.0644 20.9455 12.8937C20.8457 12.723 20.6986 12.585 20.5219 12.4964C20.3453 12.4078 20.1466 12.3724 19.9502 12.3946C19.7538 12.4167 19.5681 12.4955 19.4156 12.6212Z" fill="#171717"/>
<defs>
<filter id="filter0_d_1_15" x="0.74636" y="0.768188" width="32.4841" height="32.4841" filterUnits="userSpaceOnUse" color-interpolation-filters="sRGB">
<feFlood flood-opacity="0" result="BackgroundImageFix"/>
<feColorMatrix in="SourceAlpha" type="matrix" values="0 0 0 0 0 0 0 0 0 0 0 0 0 0 0 0 0 0 127 0" result="hardAlpha"/>
<feOffset dx="1" dy="1"/>
<feGaussianBlur stdDeviation="2"/>
<feComposite in2="hardAlpha" operator="out"/>
<feColorMatrix type="matrix" values="0 0 0 0 0 0 0 0 0 0 0 0 0 0 0 0 0 0 0.25 0"/>
<feBlend mode="normal" in2="BackgroundImageFix" result="effect1_dropShadow_1_15"/>
<feBlend mode="normal" in="SourceGraphic" in2="effect1_dropShadow_1_15" result="shape"/>
</filter>
<linearGradient id="paint0_linear_1_15" x1="7.33737" y1="7.3388" x2="24.6565" y2="24.6579" gradientUnits="userSpaceOnUse">
<stop stop-color="#FCFCFC"/>
<stop offset="1" stop-color="#E6E6E6"/>
</linearGradient>
<linearGradient id="paint1_linear_1_15" x1="23.6387" y1="23.6387" x2="3.22843" y2="3.22843" gradientUnits="userSpaceOnUse">
<stop stop-color="#FCFCFC"/>
<stop offset="1" stop-color="#E6E6E6"/>
</linearGradient>
</defs>
</svg>
