<svg width="298" height="144" viewBox="0 0 298 144" fill="none" xmlns="http://www.w3.org/2000/svg">
<path d="M255.681 104.667C256.143 104.667 256.586 104.851 256.913 105.177C257.24 105.504 257.423 105.947 257.423 106.409V118.219C257.423 120.329 256.585 122.352 255.093 123.844C253.601 125.336 251.578 126.174 249.468 126.174H249.137L43.0084 117.569C40.9575 117.484 39.0191 116.609 37.5982 115.127C36.1774 113.646 35.3842 111.673 35.3845 109.62V106.415C35.3845 105.953 35.568 105.51 35.8947 105.183C36.2214 104.856 36.6645 104.673 37.1264 104.673H41.5974C42.0594 104.673 42.5025 104.856 42.8292 105.183C43.1558 105.51 43.3394 105.953 43.3394 106.415V109.62L249.468 118.225V106.409C249.468 105.947 249.652 105.504 249.979 105.177C250.305 104.851 250.748 104.667 251.21 104.667H255.681Z" fill="#A3F7BF"/>
<path d="M257.423 31.3897V43.2C257.423 43.662 257.24 44.1051 256.913 44.4318C256.586 44.7584 256.143 44.942 255.681 44.942H251.21C250.748 44.942 250.305 44.7584 249.979 44.4318C249.652 44.1051 249.468 43.662 249.468 43.2V31.3897L246.565 31.5116L245.363 23.5974L249.155 23.4407H249.486C251.596 23.4407 253.619 24.2788 255.111 25.7706C256.603 27.2624 257.441 29.2858 257.441 31.3955L257.423 31.3897Z" fill="#A3F7BF"/>
<path d="M232.595 16.2581C232.595 16.6154 232.453 16.958 232.2 17.2106C231.948 17.4633 231.605 17.6052 231.248 17.6052H224.861C224.503 17.6052 224.161 17.4633 223.908 17.2106C223.655 16.958 223.514 16.6154 223.514 16.2581C223.514 15.9008 223.655 15.5582 223.908 15.3056C224.161 15.0529 224.503 14.911 224.861 14.911H231.248C231.605 14.911 231.948 15.0529 232.2 15.3056C232.453 15.5582 232.595 15.9008 232.595 16.2581Z" fill="#764AF1"/>
<path d="M214.043 16.2581C214.043 16.6154 213.901 16.958 213.649 17.2106C213.396 17.4633 213.053 17.6052 212.696 17.6052H210.85V19.4516C210.85 19.8089 210.708 20.1515 210.455 20.4042C210.202 20.6568 209.86 20.7987 209.503 20.7987C209.145 20.7987 208.803 20.6568 208.55 20.4042C208.297 20.1515 208.155 19.8089 208.155 19.4516V17.582H206.309C205.952 17.582 205.609 17.44 205.356 17.1874C205.104 16.9348 204.962 16.5921 204.962 16.2349C204.962 15.8776 205.104 15.5349 205.356 15.2823C205.609 15.0297 205.952 14.8878 206.309 14.8878H208.155V13.0413C208.155 12.684 208.297 12.3414 208.55 12.0888C208.803 11.8361 209.145 11.6942 209.503 11.6942C209.86 11.6942 210.202 11.8361 210.455 12.0888C210.708 12.3414 210.85 12.684 210.85 13.0413V14.8878H212.696C212.875 14.8877 213.052 14.9233 213.217 14.9925C213.382 15.0616 213.532 15.1629 213.657 15.2905C213.782 15.4181 213.881 15.5693 213.947 15.7354C214.014 15.9016 214.046 16.0792 214.043 16.2581Z" fill="#764AF1"/>
<path d="M243.871 14.1793C243.339 10.2515 241.36 6.66373 238.322 4.11838C235.284 1.57302 231.405 0.253445 227.445 0.41803L207.052 1.2948C203.307 1.4418 199.734 2.90736 196.964 5.43274C194.195 7.95811 192.406 11.3809 191.915 15.0967L190.225 26.129L188.994 34.1419L188.919 34.6529V34.7225C188.554 37.4432 189.283 40.1975 190.946 42.3811C192.609 44.5648 195.071 45.9994 197.791 46.3703C198.246 46.4255 198.703 46.4527 199.161 46.4516C200.591 46.4512 202.004 46.1548 203.313 45.5812C204.622 45.0076 205.799 44.1692 206.768 43.1187L215.187 33.0329C217.034 32.9574 228.025 32.1793 230.156 32.0864H230.249C233.195 31.6803 235.967 30.4551 238.25 28.5503C243.377 24.6251 244.121 20.1309 243.871 14.1793ZM228.408 24.5148L222.695 24.7703L220.337 24.869L211.657 25.2522L204.776 33.48L201.048 37.9509C200.662 38.3431 200.163 38.6044 199.62 38.6982C199.078 38.7921 198.519 38.7138 198.024 38.4743C197.528 38.2348 197.12 37.8461 196.856 37.3628C196.593 36.8794 196.487 36.3257 196.554 35.7793L196.856 33.8109L198.081 25.798L199.626 15.7122C199.963 13.881 200.913 12.2193 202.322 11.0011C203.73 9.78301 205.511 9.08123 207.372 9.01158L227.758 8.129C228.834 8.08744 229.908 8.25821 230.917 8.63154C231.927 9.00488 232.854 9.57348 233.644 10.3049C234.434 11.0363 235.073 11.9161 235.523 12.8942C235.973 13.8724 236.226 14.9295 236.267 16.0054C236.309 17.0814 236.138 18.1549 235.765 19.1648C235.392 20.1747 234.823 21.1012 234.092 21.8914C233.36 22.6816 232.48 23.3199 231.502 23.7701C230.524 24.2202 229.467 24.4732 228.391 24.5148H228.408Z" fill="#764AF1"/>
<path d="M244.922 42.3522C244.099 43.4374 243.07 44.3487 241.893 45.0334C240.716 45.7181 239.414 46.1626 238.065 46.3412C237.607 46.4038 237.145 46.4348 236.683 46.4342C235.252 46.4335 233.838 46.1371 232.528 45.5635C231.218 44.9899 230.041 44.1516 229.07 43.1012C229.023 43.0537 228.978 43.0033 228.937 42.9503L220.808 33.1664L220.616 32.94L219.368 31.4361C218.937 30.9138 218.651 30.2876 218.538 29.6201C218.425 28.9526 218.489 28.2671 218.725 27.6323C218.96 26.9974 219.357 26.4354 219.878 26.0025C220.398 25.5695 221.023 25.2808 221.69 25.1651L222.608 25.1245H222.66C223.17 25.1668 223.666 25.3104 224.119 25.5466C224.573 25.7829 224.975 26.1072 225.302 26.5006L230.237 32.4464L230.499 32.76L234.784 37.9219C235.169 38.3178 235.669 38.5825 236.213 38.6784C236.756 38.7743 237.317 38.6967 237.814 38.4564C238.311 38.2161 238.72 37.8255 238.983 37.3398C239.246 36.854 239.349 36.2979 239.278 35.7503L238.773 32.4174L238.239 28.9335L237.565 24.5264L236.323 16.078C236.182 15.1047 236.419 14.1144 236.983 13.3093C237.548 12.5043 238.399 11.945 239.362 11.7458C240.325 11.5465 241.328 11.7222 242.166 12.237C243.004 12.7518 243.613 13.5669 243.871 14.5161C243.906 14.6419 243.934 14.7699 243.952 14.8993L245.363 24.1896L246.565 32.1038L246.954 34.6412C246.954 34.6412 246.954 34.6819 246.954 34.7051C247.137 36.0508 247.052 37.4194 246.703 38.732C246.354 40.0445 245.749 41.2749 244.922 42.3522Z" fill="#764AF1"/>
<path d="M190.225 25.9026L188.994 33.9155L43.3394 39.9948V43.2C43.3394 43.662 43.1558 44.1051 42.8292 44.4317C42.5025 44.7584 42.0594 44.9419 41.5974 44.9419H37.1264C36.6645 44.9419 36.2214 44.7584 35.8947 44.4317C35.568 44.1051 35.3845 43.662 35.3845 43.2V39.9948C35.3842 37.9422 36.1774 35.9689 37.5982 34.4875C39.0191 33.0061 40.9575 32.1312 43.0084 32.0458L146.073 27.7432L190.225 25.9026Z" fill="#A3F7BF"/>
<path d="M61.9897 57.42C60.4088 55.0538 58.1502 53.2202 55.5097 52.1594C52.3948 50.9334 49.0666 50.3412 45.72 50.4174H26.7097C26.4783 50.4076 26.2474 50.4459 26.0316 50.5299C25.8158 50.614 25.6198 50.7419 25.456 50.9057C25.2923 51.0695 25.1643 51.2654 25.0802 51.4813C24.9962 51.6971 24.9579 51.928 24.9677 52.1594V97.4497C24.9579 97.6811 24.9962 97.912 25.0802 98.1278C25.1643 98.3436 25.2923 98.5396 25.456 98.7033C25.6198 98.8671 25.8158 98.9951 26.0316 99.0791C26.2474 99.1632 26.4783 99.2015 26.7097 99.1916H34.6413C34.8727 99.2015 35.1036 99.1632 35.3194 99.0791C35.5352 98.9951 35.7312 98.8671 35.8949 98.7033C36.0587 98.5396 36.1867 98.3436 36.2707 98.1278C36.3548 97.912 36.3931 97.6811 36.3832 97.4497V81.7026H45.72C49.0602 81.777 52.3836 81.2093 55.5097 80.0303C57.9531 79.0898 60.0822 77.4799 61.6529 75.3852C61.769 75.2284 61.8794 75.0716 61.9897 74.909C62.2652 74.5029 62.5154 74.0802 62.7387 73.6432C63.1135 72.8988 63.4187 72.1213 63.6503 71.3206C63.8185 70.7489 63.9503 70.1671 64.0452 69.5787C64.2364 68.4508 64.3296 67.3085 64.3239 66.1645C64.3239 62.7 63.5458 59.7852 61.9897 57.42ZM50.911 71.3206C49.5871 72.4819 47.7406 73.0626 45.3716 73.0626H37.9161C37.4541 73.0626 37.0111 72.8791 36.6844 72.5524C36.3577 72.2257 36.1742 71.7826 36.1742 71.3206V59.1271H45.3716C48.0194 59.1271 49.9355 59.7774 51.12 61.0781C52.3344 62.4602 52.9706 64.2565 52.8968 66.0948C52.931 67.2927 52.6969 68.483 52.2116 69.5787C51.905 70.2441 51.4618 70.8376 50.911 71.3206Z" fill="white"/>
<path d="M82.3006 50.9051C82.136 50.7426 81.9397 50.6154 81.724 50.5315C81.5083 50.4476 81.2777 50.4088 81.0465 50.4174H73.1613C72.9299 50.4076 72.699 50.4459 72.4832 50.5299C72.2674 50.614 72.0714 50.7419 71.9076 50.9057C71.7439 51.0694 71.6159 51.2654 71.5319 51.4812C71.4478 51.697 71.4095 51.928 71.4194 52.1593V97.4497C71.4095 97.681 71.4478 97.912 71.5319 98.1278C71.6159 98.3436 71.7439 98.5396 71.9076 98.7033C72.0714 98.8671 72.2674 98.995 72.4832 99.0791C72.699 99.1632 72.9299 99.2015 73.1613 99.1916H81.0348C81.2662 99.2015 81.4971 99.1632 81.7129 99.0791C81.9287 98.995 82.1247 98.8671 82.2885 98.7033C82.4523 98.5396 82.5802 98.3436 82.6643 98.1278C82.7483 97.912 82.7866 97.681 82.7768 97.4497V52.1593C82.7869 51.9289 82.7499 51.6988 82.668 51.4832C82.5862 51.2675 82.4612 51.0708 82.3006 50.9051Z" fill="white"/>
<path d="M133.305 50.8703C133.173 50.724 133.012 50.6078 132.831 50.5296C132.651 50.4514 132.456 50.4131 132.259 50.4174H124.943C124.65 50.3965 124.356 50.4375 124.08 50.5375C123.804 50.6375 123.552 50.7944 123.341 50.9981C123.025 51.3117 122.766 51.677 122.574 52.0781L117.029 69.5671L116.448 71.309L115.711 73.6316L115.13 75.3735L111.716 86.1503L108.279 75.3735L107.698 73.6316L106.961 71.309L106.38 69.5671L100.8 52.0781C100.649 51.6633 100.397 51.2924 100.068 50.9981C99.8488 50.7958 99.5905 50.6401 99.3091 50.5403C99.0276 50.4405 98.729 50.3987 98.431 50.4174H91.2194C91.0228 50.4131 90.8276 50.4514 90.6473 50.5296C90.4669 50.6078 90.3055 50.724 90.1742 50.8703C89.909 51.1401 89.7591 51.5024 89.7561 51.8806C89.7588 52.0914 89.7822 52.3015 89.8258 52.5077L95.4174 69.5787L95.9981 71.3206L96.7645 73.6432L97.3452 75.3851L104.481 97.171C104.663 97.722 104.987 98.2149 105.422 98.5993C105.92 99.0094 106.555 99.2167 107.199 99.18H116.303C116.97 99.2241 117.628 99.0169 118.15 98.5993C118.579 98.2236 118.883 97.725 119.021 97.171L126.157 75.3851L126.737 73.6432L127.504 71.3206L128.085 69.5787L133.676 52.5077C133.72 52.3015 133.743 52.0914 133.746 51.8806C133.737 51.4991 133.578 51.1363 133.305 50.8703Z" fill="white"/>
<path d="M180.476 97.1013L172.452 75.3852L170.303 69.5787L163.916 52.2987C163.775 51.7844 163.484 51.3236 163.08 50.9748C162.592 50.5701 161.971 50.3629 161.338 50.3942H152.396C151.763 50.3629 151.142 50.5701 150.654 50.9748C150.246 51.322 149.951 51.783 149.806 52.2987L143.419 69.5787L142.775 71.3207L141.915 73.6432L141.271 75.3852L133.235 97.1013C133.186 97.3067 133.163 97.5173 133.165 97.7284C133.168 98.1067 133.318 98.469 133.583 98.7387C133.715 98.885 133.876 99.0013 134.056 99.0794C134.237 99.1576 134.432 99.1959 134.628 99.1916H141.875C142.151 99.2176 142.43 99.1884 142.695 99.1057C142.961 99.0229 143.207 98.8883 143.419 98.7097C143.694 98.4591 143.909 98.1494 144.046 97.8039L147.031 90H166.68L169.676 97.8039C169.814 98.1494 170.028 98.4591 170.303 98.7097C170.514 98.8879 170.758 99.0228 171.021 99.1065C171.284 99.1902 171.561 99.2211 171.836 99.1974H179.083C179.279 99.2017 179.474 99.1634 179.655 99.0852C179.835 99.0071 179.996 98.8908 180.128 98.7445C180.393 98.4748 180.543 98.1125 180.546 97.7342C180.549 97.5212 180.525 97.3086 180.476 97.1013ZM152.088 81.0058C151.81 81.005 151.536 80.9376 151.289 80.8092C151.042 80.6807 150.83 80.495 150.67 80.2676C150.509 80.0402 150.406 79.7776 150.368 79.502C150.33 79.2263 150.358 78.9456 150.451 78.6832L151.612 75.3968L152.245 73.6548L153.081 71.3323L153.714 69.5903L156.855 60.9677L159.944 69.6077L160.566 71.3497L161.402 73.6723L162.023 75.4142L164.032 81.0348L152.088 81.0058Z" fill="white"/>
<path d="M225.975 72C225.811 71.8374 225.615 71.7103 225.399 71.6264C225.183 71.5425 224.953 71.5037 224.721 71.5123H207.395C207.287 71.5126 207.18 71.5363 207.081 71.5819C206.748 71.7133 206.463 71.9443 206.265 72.2436C206.068 72.5429 205.967 72.8958 205.978 73.2542V77.7136C205.975 78.1681 206.15 78.6057 206.466 78.9329C206.612 79.0967 206.791 79.2279 206.991 79.3179C207.191 79.408 207.408 79.4548 207.627 79.4555H213.503C213.965 79.4555 214.408 79.639 214.735 79.9657C215.062 80.2924 215.245 80.7354 215.245 81.1974C215.322 83.1194 214.864 85.0251 213.921 86.702C213.082 88.1041 211.828 89.2117 210.333 89.8723C208.716 90.5674 206.971 90.9117 205.212 90.8826C202.285 90.8826 199.951 90.0929 198.209 88.5136C196.467 86.9342 195.526 84.3329 195.387 80.7097C195.329 78.9136 195.296 77.1329 195.288 75.3678C195.288 74.7871 195.288 74.2065 195.288 73.6258C195.288 72.8478 195.288 72.0755 195.288 71.3032C195.288 70.7226 195.288 70.1419 195.329 69.5613L195.364 68.5161C195.503 65.0323 196.421 62.5161 198.116 60.9678C199.812 59.4194 202.123 58.6452 205.049 58.6452C206.677 58.5801 208.298 58.89 209.787 59.551C210.896 60.0745 211.884 60.8218 212.69 61.7458C213.348 62.5026 213.877 63.3617 214.258 64.289C214.409 64.6167 214.636 64.9035 214.92 65.1252C215.242 65.3293 215.62 65.4269 216 65.4039H224.652C224.859 65.4129 225.066 65.3771 225.258 65.2989C225.451 65.2208 225.624 65.1021 225.766 64.951C226.041 64.6592 226.191 64.2717 226.185 63.871C226.09 62.1742 225.588 60.5252 224.721 59.0632C223.683 57.2644 222.302 55.6863 220.657 54.4181C218.692 52.8948 216.475 51.7275 214.107 50.969C211.18 50.0372 208.12 49.59 205.049 49.6452C201.223 49.5769 197.428 50.3521 193.935 51.9155C190.947 53.2505 188.424 55.4459 186.689 58.2213C184.994 60.9619 184.076 64.2832 183.937 68.1852C183.937 68.6439 183.937 69.1084 183.937 69.5787C183.937 70.1594 183.937 70.74 183.937 71.3207C183.937 72.0813 183.937 72.8536 183.937 73.6432C183.937 73.98 183.937 74.3226 183.937 74.6652V75.3852C183.937 77.3942 183.96 79.291 184.006 81.0755C184.146 85.0703 185.063 88.4729 186.759 91.2832C188.456 94.0838 190.957 96.3092 193.935 97.6703C197.032 99.1336 200.76 99.8652 205.119 99.8652C209.014 99.9523 212.88 99.1791 216.441 97.6007C219.521 96.2216 222.117 93.9527 223.897 91.0858C225.639 88.2523 226.51 84.8381 226.51 80.8432V73.2716C226.515 73.0341 226.47 72.7981 226.378 72.579C226.286 72.36 226.149 72.1627 225.975 72Z" fill="white"/>
<path d="M276.91 97.1013L268.874 75.3852L268.229 73.6432L267.37 71.3207L266.725 69.5787L260.338 52.2987C260.197 51.7844 259.906 51.3236 259.502 50.9748C259.014 50.5701 258.393 50.3629 257.76 50.3942H248.83C248.197 50.3629 247.575 50.5701 247.088 50.9748C246.684 51.3236 246.393 51.7844 246.252 52.2987L239.865 69.5787L239.22 71.3207L237.716 75.3852L229.68 97.1013C229.631 97.3067 229.608 97.5173 229.61 97.7284C229.613 98.1067 229.763 98.469 230.028 98.7387C230.16 98.885 230.321 99.0013 230.501 99.0794C230.682 99.1576 230.877 99.1959 231.074 99.1916H238.32C238.595 99.2153 238.872 99.1843 239.135 99.1006C239.398 99.0169 239.642 98.8821 239.853 98.7039C240.128 98.4533 240.342 98.1436 240.48 97.7981L243.464 90H263.114L266.11 97.8039C266.247 98.1494 266.462 98.4591 266.737 98.7097C266.948 98.8879 267.191 99.0228 267.455 99.1065C267.718 99.1902 267.995 99.2211 268.27 99.1974H275.516C275.713 99.2017 275.908 99.1634 276.088 99.0852C276.269 99.0071 276.43 98.8908 276.561 98.7445C276.826 98.4748 276.976 98.1125 276.979 97.7342C276.982 97.5212 276.959 97.3086 276.91 97.1013ZM248.516 81.0058C248.238 81.005 247.964 80.9376 247.717 80.8092C247.47 80.6807 247.258 80.495 247.097 80.2676C246.937 80.0402 246.833 79.7776 246.795 79.502C246.757 79.2263 246.786 78.9456 246.879 78.6832L248.04 75.3968L248.673 73.6548L249.509 71.3323L250.142 69.5903L253.289 60.9677L256.378 69.6077L256.999 71.3497L257.835 73.6723L258.457 75.4142L260.466 81.0348L248.516 81.0058Z" fill="white"/>
</svg>
